# xmcd
#
# Track frame offsets: 
#        150
#        13733
#        25302
#        38303
#        52364
#        66042
#        81097
#        96478
#        110356
#        123395
#        139859
#        154759
#        169247
#        182852
#        197797
#        212438
#        225999
#        239030
#        253812
#        268474
#
# Disc length: 3774 seconds
#
# Revision: 0
# Processed by: cddbd v1.5.2PL0 Copyright (c) Steve Scherf et al.
# Submitted via: ExactAudioCopy v0.99pb4
#
DISCID=240ebc14
DTITLE=Various Artist - Bottleneck Blues Wizards
DYEAR=2006
DGENRE=Blues
TTITLE0=Blind Lemon Jefferson/Rabbit Foot Blues
TTITLE1=Blind Willie McTell/Statesboro Blues
TTITLE2=Furry Lewis/Falling Down Blues
TTITLE3=Furry Lewis/Judge Harsh Blues
TTITLE4=Sylvester Waever/Guitar Rag
TTITLE5=Blind Willie Johnson/Dark Was The Night (Cold Was The Ground)
TTITLE6=Blind Willie Johnson/Mother's Children Have A Hard Time
TTITLE7=Casey Bill Weldon/Hitch Me To Your Buggy And Drive Me Like A M
TTITLE7=ule
TTITLE8=Blind Blake/Police Dog Blues
TTITLE9=Tommy Johnson/Canned Heat Blues
TTITLE10=Lonnie Johnson/Guitar Blues
TTITLE11=Charley Patton/A Spoonful Blues
TTITLE12=Charley Patton/Pony Blues
TTITLE13=Charley Patton/Moon Going Down
TTITLE14=Son House/My Black Mama
TTITLE15=Skip James/Devil Got My Woman
TTITLE16=Skip James/I'm So Glad
TTITLE17=Tampa Red/Things 'bout Coming My Way
TTITLE18=Lonnie Johnson/Racketeer's Blues
TTITLE19=Big Joe Williams/Wild Cow Blues
EXTD=
EXTT0=
EXTT1=
EXTT2=
EXTT3=
EXTT4=
EXTT5=
EXTT6=
EXTT7=
EXTT8=
EXTT9=
EXTT10=
EXTT11=
EXTT12=
EXTT13=
EXTT14=
EXTT15=
EXTT16=
EXTT17=
EXTT18=
EXTT19=
PLAYORDER=
